<?xml version="1.0" standalone="no"?>
<!DOCTYPE svg PUBLIC "-//W3C//DTD SVG 20010904//EN"
 "http://www.w3.org/TR/2001/REC-SVG-20010904/DTD/svg10.dtd">
<svg version="1.0" xmlns="http://www.w3.org/2000/svg"
 width="700.000000pt" height="700.000000pt" viewBox="0 0 700.000000 700.000000"
 preserveAspectRatio="xMidYMid meet">
<metadata>
Created by potrace 1.14, written by Peter Selinger 2001-2017
</metadata>
<g transform="translate(0.000000,700.000000) scale(0.100000,-0.100000)"
fill="#000000" stroke="none">
<path d="M737 6020 c-105 -33 -195 -185 -203 -341 -3 -67 0 -81 19 -110 19
-29 31 -35 72 -40 173 -22 263 -160 270 -414 1 -66 0 -142 -4 -168 l-6 -48
-75 -25 c-125 -42 -361 -169 -426 -229 -7 -5 -31 -26 -55 -45 -157 -127 -285
-299 -319 -429 -13 -49 -7 -186 10 -253 16 -61 51 -116 103 -165 42 -39 132
-87 408 -216 143 -67 182 -145 185 -377 1 -123 -2 -172 -21 -325 -11 -90 -12
-97 -51 -345 -27 -170 -43 -280 -48 -315 -2 -11 -7 -45 -11 -75 -4 -30 -9 -66
-10 -80 -3 -31 -14 -129 -21 -190 -9 -79 -11 -393 -3 -460 49 -400 237 -761
524 -1006 196 -168 481 -292 756 -329 24 -4 55 -9 69 -12 14 -3 1113 -7 2443
-8 2595 -3 2501 -5 2584 46 61 38 89 129 59 188 -63 121 -482 342 -1076 567
-80 31 -161 61 -180 69 -19 8 -91 33 -160 57 l-125 43 0 193 c0 105 -2 193 -5
193 -3 1 -255 2 -560 3 -305 1 -561 5 -567 9 -8 5 -13 32 -13 73 l0 64 878 1
c482 0 895 2 917 5 178 20 312 133 407 342 64 141 138 372 153 477 3 22 9 65
14 95 10 57 7 406 -3 450 -3 13 -8 42 -11 65 -27 188 -80 397 -134 527 -59
141 -161 262 -264 312 -96 47 -152 55 -420 56 l-247 1 -1 -283 c-1 -315 -1
-310 -25 -405 -68 -274 -312 -498 -589 -541 -33 -5 -342 -10 -687 -10 -454 0
-642 -3 -680 -12 -196 -45 -376 -217 -434 -415 -16 -54 -21 -124 -23 -331 l-1
-51 -70 25 -70 25 0 131 c0 96 5 153 20 213 50 211 190 386 385 482 154 76
132 74 860 76 358 1 667 5 688 9 209 35 385 190 454 400 l26 81 2 615 c1 458
-2 630 -11 675 -32 155 -117 276 -260 371 -121 81 -255 124 -431 140 -37 3
-71 8 -74 10 -24 14 -434 21 -604 10 -500 -32 -764 -131 -855 -321 -49 -103
-56 -162 -56 -470 l1 -280 572 0 573 0 0 -72 0 -72 -852 -4 c-469 -1 -866 -6
-881 -10 -265 -70 -431 -217 -532 -472 -31 -78 -91 -377 -102 -510 -12 -144
-5 -356 17 -476 5 -30 12 -69 15 -88 3 -19 8 -38 11 -43 21 -34 -117 57 -158
104 -124 141 -137 304 -54 634 53 209 108 483 121 599 3 33 8 80 11 105 28
231 -8 542 -81 707 -17 37 -24 68 -21 87 3 17 8 49 11 71 3 22 8 51 11 65 2
14 7 39 9 55 3 17 10 53 15 80 5 28 12 66 14 85 3 19 8 46 10 60 17 93 36 224
41 275 3 33 8 76 11 95 9 59 5 251 -5 314 -31 182 -125 332 -255 407 -113 64
-206 41 -288 -70 -86 -117 -111 -334 -43 -376 11 -7 41 -15 68 -19 65 -8 119
-38 159 -88 37 -46 72 -122 82 -178 3 -19 8 -46 11 -60 7 -30 7 -205 1 -240
-3 -14 -7 -43 -10 -65 -6 -48 -24 -142 -32 -169 -5 -16 -9 -15 -37 12 -113
106 -287 184 -425 191 -27 1 -27 -6 4 191 22 137 26 378 10 465 -22 112 -24
116 -62 195 -80 162 -248 275 -357 240z m3023 -1325 c33 -17 78 -68 92 -104
57 -150 -47 -304 -204 -303 -144 2 -249 161 -193 295 52 125 185 174 305 112z"/>
</g>
</svg>
