<svg xmlns="http://www.w3.org/2000/svg" viewBox="0 0 220 220">

  <defs>
    <g id="snail">
      <path fill="#9266CC"
        d="M 45 78 c 0 -20 10 -40 0 -50 s -15 10 -10 10 c 7 0 10 10 5 25 s 5 20 5 15 z m -19 0 c 0 -20 10 -40 0 -50 s -15 10 -10 10 c 7 0 10 10 5 25 s 5 20 5 15 z" />
      <path fill="#AA8DD8"
        d="M 180 175 c 0 5 -5 5 -10 5 H 55 c -25 0 -36 -15 -40 -30 c -5 -20 10 -55 0 -60 s -15 -5 -15 -15 s 22 -26 35 -20 c 20 10 14 35 10 50 c -4 18 6 18 25 25 c 25 9 62 22 70 25 c 15 5 40 15 40 20 z" />
    </g>

    <g id="python">
      <path fill="#5a9fd4"
        d="M 60.41 0 C 55.37 0.02 50.55 0.45 46.32 1.2 C 33.84 3.41 31.57 8.02 31.57 16.54 v 11.24 h 29.49 v 3.75 h -29.49 h -11.07 c -8.57 0 -16.08 5.15 -18.43 14.95 c -2.71 11.23 -2.83 18.24 0 29.98 c 2.1 8.73 7.1 14.95 15.68 14.95 h 10.14 v -13.48 c 0 -9.73 8.42 -18.32 18.43 -18.32 h 29.46 c 8.2 0 14.75 -6.75 14.75 -14.99 v -28.08 c 0 -7.99 -6.74 -14 -14.75 -15.33 C 70.71 0.36 65.45 -0.02 60.41 0 Z m -15.95 9.04 c 3.05 0 5.53 2.53 5.53 5.64 c 0 3.1 -2.49 5.6 -5.53 5.6 c -3.06 0 -5.53 -2.51 -5.53 -5.6 c 0 -3.11 2.48 -5.64 5.53 -5.64 z" />
      <path fill="#ffd43b"
        d="m 94.2 31.52 v 13.1 c 0 10.15 -8.61 18.7 -18.43 18.7 h -29.46 c -8.07 0 -14.75 6.91 -14.75 14.99 v 28.08 c 0 7.99 6.95 12.69 14.75 14.99 c 9.34 2.75 18.29 3.24 29.46 0 c 7.43 -2.15 14.75 -6.48 14.75 -14.99 V 95.15 h -29.46 v -3.75 h 29.46 h 14.75 c 8.57 0 11.77 -5.98 14.75 -14.95 c 3.08 -9.24 2.95 -18.12 0 -29.98 c -2.12 -8.53 -6.16 -14.95 -14.75 -14.95 z m -16.57 71.12 c 3.06 0 5.53 2.51 5.53 5.6 c 0 3.11 -2.48 5.64 -5.53 5.64 c -3.05 0 -5.53 -2.53 -5.53 -5.64 c 0 -3.1 2.49 -5.6 5.53 -5.6 z" />
    </g>
  </defs>

  <use id="snail" x="20" y="20" href="#snail" />
  <use id="python" x="69.5" y="69.5" href="#python" />
</svg>
